# xmcd
#
# Track frame offsets:
#	180
#	24773
#	43482
#	71103
#	90643
#	104010
#	128020
#	146898
#	158435
#	172992
#	189907
#	208410
#	228090
#
# Disc length: 3238 seconds
#
# Revision: 1
# Processed by: cddbd v1.4PL0 Copyright (c) Steve Scherf et al.
# Submitted via: EasyCDDAExtractor 5.1.0
#
DISCID=b10ca40d
DTITLE=Various Artist - Cross Over
DYEAR=1900
DGENRE=
TTITLE0=CD 06 Harry Hard - Moderato
TTITLE1=Rubato/Allegro
TTITLE2=Allegro com moto
TTITLE3=Hazy morning
TTITLE4=Left hand rythm
TTITLE5=Ballad
TTITLE6=Warming up
TTITLE7=Relaxin'
TTITLE8=Gettin't done
TTITLE9=Straigth away
TTITLE10=Caresses
TTITLE11=Monaco
TTITLE12=Take it
EXTD=
EXTT0=
EXTT1=
EXTT2=
EXTT3=
EXTT4=
EXTT5=
EXTT6=
EXTT7=
EXTT8=
EXTT9=
EXTT10=
EXTT11=
EXTT12=
PLAYORDER=
